<svg xmlns="http://www.w3.org/2000/svg" xmlns:xlink="http://www.w3.org/1999/xlink" xml:space="preserve" version="1.1" style="shape-rendering:geometricPrecision;text-rendering:geometricPrecision;image-rendering:optimizeQuality;" viewBox="0 0 7536 6273.75" x="0px" y="0px" fill-rule="evenodd" clip-rule="evenodd"><defs><style type="text/css">
   
    .fil0 {fill:black;fill-rule:nonzero}
   
  </style></defs><g><path class="fil0" d="M83 0l7453 0 0 472c0,321 -262,584 -583,584l-435 0 0 1213c0,1513 -1237,2750 -2750,2750 -1513,0 -2750,-1237 -2750,-2750l0 -1213 -435 0c-321,0 -583,-263 -583,-584l0 -472 83 0zm6268 1056l-5166 0 0 1213c0,1421 1162,2584 2583,2584 1421,0 2583,-1163 2583,-2584l0 -1213zm1018 -889l-7202 0c0,302 -25,722 416,722l6370 0c441,0 416,-420 416,-722z"/><path class="fil0" d="M3768 2771c475,0 859,385 859,860 0,474 -384,859 -859,859 -475,0 -859,-385 -859,-859 0,-475 384,-860 859,-860zm490 370c-271,-271 -709,-271 -980,0 -270,270 -270,709 0,979 271,271 709,271 980,0 270,-270 270,-709 0,-979z"/><path class="fil0" d="M3768 3059c316,0 571,256 571,572 0,315 -255,571 -571,571 -316,0 -572,-256 -572,-571 0,-316 256,-572 572,-572zm286 285c-254,-254 -691,-73 -691,287 0,359 437,540 691,286 158,-158 158,-415 0,-573z"/></g><text x="0" y="5034" fill="#000000" font-size="5px" font-weight="bold" font-family="'Helvetica Neue', Helvetica, Arial-Unicode, Arial, Sans-serif">Created by joni</text><text x="0" y="5039" fill="#000000" font-size="5px" font-weight="bold" font-family="'Helvetica Neue', Helvetica, Arial-Unicode, Arial, Sans-serif">from the Noun Project</text></svg>