<svg height="960" viewBox="0 0 960 960" width="960" xmlns="http://www.w3.org/2000/svg"><g fill="none" fill-rule="evenodd" stroke="#000" stroke-linejoin="round" transform="matrix(-1 0 0 1 917.750897 91.565086)"><g stroke-linecap="round" stroke-width="20"><ellipse cx="387.507107" cy="388.434914" rx="363" ry="364" transform="matrix(.99756405 -.06975647 .06975647 .99756405 -26.151902 27.977337)"/><path d="m409.30323 751.434914c169.848591-11.859561 296.166978-183.849577 282.140016-384.150453-14.026962-200.300875-163.087549-353.0627434-332.936139-341.2031821"/><path d="m220.098617 625.088747c97.368386-6.799037 169.320502-111.996262 160.709549-234.964579-8.610954-122.968316-94.524183-217.142124-191.89257-210.343087-97.3683859 6.799037-169.3205017 111.996263-160.7095483 234.964579 8.6109534 122.968317 94.5241833 217.142125 191.8925693 210.343087z"/></g><path d="m374.576151 19.3489354c109.109825-7.6383747 210.466945 32.943331 283.240211 103.6275446 62.15466 2.917908 118.137197 29.991226 159.082823 72.271916 42.554911 43.942447 68.857024 104.319311 68.857024 170.971492 0 58.560031-20.30584 112.277162-54.095219 154.259401-32.833258 40.79429-78.400452 70.497776-130.474638 82.893447-61.88957 86.722683-160.550121 146.128951-275.044726 154.144294-132.318777 9.263147-253.238526-52.38995-325.605377-152.642474-50.3142821-40.536556-86.4389208-108.85664-92.032242-188.731801-5.56759508-79.507781 20.4166877-151.885631 64.2358273-199.052273 57.5295707-110.003981 169.0319957-188.4444081 301.8363167-197.7415466z" stroke-width="40"/><g stroke-linecap="round" stroke-width="20"><path d="m765.507107 213.434914c16.922039 1.047866 29.893927 2.640162 38.915662 4.776889 9.021736 2.136727 21.383182 6.544431 37.084338 13.223111"/><path d="m733.507107 170.434914c16.922039 1.047866 29.893927 2.640162 38.915662 4.776889 9.021736 2.136727 21.383182 6.544431 37.084338 13.223111"/><path d="m799.507107 469.434914c17.249094-1.735821 31.572002-5.044758 42.968725-9.926809 11.396722-4.882052 22.407147-11.573115 33.031275-20.073191"/><path d="m811.507107 406.434914c12.645325-1.315475 20.293004-2.222045 22.943036-2.719708 28.829455-5.414037 35.614465-9.552714 41.056964-13.280292"/><path d="m794.507107 268.434914c31.526991 2.201845 53.526991 5.535179 66 10"/><path d="m805.507107 335.434914c16.174674-1.514171 28.289274-2.501387 36.3438-2.961645 8.054526-.460259 19.273259-.806377 33.6562-1.038355"/><path d="m777.507107 520.434914c33.214117-5.65215 53.880784-10.985484 62-16"/></g></g></svg>