<?xml version="1.0" encoding="UTF-8" standalone="no"?>
<!-- Uploaded to: SVG Repo, www.svgrepo.com, Generator: SVG Repo Mixer Tools -->

<svg
   fill="#000000"
   height="770.91608"
   width="825.36334"
   version="1.1"
   id="Layer_1"
   viewBox="0 0 66.029067 61.673287"
   enable-background="new 0 0 64 64"
   xml:space="preserve"
   sodipodi:docname="icon.svg"
   inkscape:version="1.2 (dc2aedaf03, 2022-05-15)"
   xmlns:inkscape="http://www.inkscape.org/namespaces/inkscape"
   xmlns:sodipodi="http://sodipodi.sourceforge.net/DTD/sodipodi-0.dtd"
   xmlns="http://www.w3.org/2000/svg"
   xmlns:svg="http://www.w3.org/2000/svg"><defs
   id="defs20" /><sodipodi:namedview
   id="namedview18"
   pagecolor="#ffffff"
   bordercolor="#666666"
   borderopacity="1.0"
   inkscape:showpageshadow="2"
   inkscape:pageopacity="0.0"
   inkscape:pagecheckerboard="0"
   inkscape:deskcolor="#d1d1d1"
   showgrid="false"
   inkscape:zoom="1.18"
   inkscape:cx="306.77966"
   inkscape:cy="334.74576"
   inkscape:window-width="2736"
   inkscape:window-height="1700"
   inkscape:window-x="-12"
   inkscape:window-y="-12"
   inkscape:window-maximized="1"
   inkscape:current-layer="Printer" />
<g
   id="Printer"
   transform="translate(1.02472,-0.99859096)">
	<path
   id="path2"
   d="m 48.199219,1.0078125 c -11.182112,0.00548 -22.366117,-0.0503501 -33.546875,0.082031 -2.737307,0.397832 -4.558937,3.358162 -4.113282,6.0042968 0,1.9959636 1e-6,3.9919277 0,5.9878907 -2.7147399,0.06346 -5.6922498,-0.447761 -8.1210932,1.082031 -2.49070911,1.555075 -3.7495358,4.64858 -3.37884667,7.51836 0.0331874,8.721393 -0.095108,17.448523 0.12139546,26.165956 0.62878207,3.635453 4.41327381,6.300706 8.04475641,5.837547 1.1451272,0.106423 2.6933671,0.03434 3.201789,-1.208143 C 11.02859,51.089812 9.5731736,49.378619 8.0992189,49.777503 6.5693317,49.775646 4.6325947,49.939994 3.6478871,48.5 2.5019154,46.852724 3.0982049,44.761751 2.9608713,42.899609 c 0.025383,-7.83226 -0.09152,-15.674414 0.1177059,-23.500118 0.447625,-1.794936 2.5092897,-2.743816 4.2382197,-2.407334 17.0402311,0.0044 34.0807491,-0.04682 51.1207031,0.07425 1.89597,0.345063 2.966016,2.488708 2.601593,4.283594 -0.01314,8.637879 0.06625,17.276707 -0.09378,25.913672 -0.414452,1.905387 -2.626182,2.897537 -4.422006,2.461561 -1.271377,-0.141072 -2.780232,0.924381 -2.457926,2.318731 0.224045,1.232172 1.621881,1.922189 2.78451,1.66775 3.020265,0.224032 6.268025,-1.350293 7.46165,-4.233975 1.111439,-2.559943 0.519005,-5.413452 0.648639,-8.110161 -0.0235,-7.486731 0.08373,-14.979364 -0.121048,-22.461985 -0.636167,-3.676655 -4.497641,-6.338061 -8.157881,-5.833386 -1.075391,-6.32e-4 -2.150781,-0.0013 -3.226172,-0.0019 -0.08966,-2.934314 0.262345,-5.9135881 -0.30698,-8.8122378 -0.712995,-1.9992008 -2.83244,-3.3865064 -4.94888,-3.2502577 z M 15.90625,4.90625 c 10.920519,0.04912 21.841183,0.010559 32.761719,0.052734 1.033714,0.2100651 0.951127,1.5055708 0.874347,2.3148416 -0.01707,1.9112875 3.71e-4,3.8226524 -0.0033,5.7339864 -11.690755,1e-6 -23.38151,0 -35.072265,0 0.04395,-2.527737 -0.147566,-5.0657146 0.150391,-7.5839843 0.272422,-0.4221594 0.822827,-0.521005 1.289108,-0.5175777 z" />
	<path
   id="path4"
   d="m 43.1875,44.214844 c -7.885094,0.05257 -15.772843,-0.04265 -23.65625,0.08203 -1.626161,0.290696 -1.754696,3.018537 -0.126953,3.408203 1.489976,0.288301 3.018688,0.04083 4.525781,0.128509 6.849904,-0.01186 13.702146,0.03739 20.550391,-0.06406 1.661254,-0.300739 1.719774,-3.145985 0.02344,-3.433593 -0.429251,-0.113243 -0.874625,-0.131493 -1.316406,-0.121094 z" />
	<path
   id="path6"
   d="m 43.1875,51.214844 c -7.885094,0.05257 -15.772843,-0.04265 -23.65625,0.08203 -1.626161,0.290696 -1.754696,3.018537 -0.126953,3.408203 1.489976,0.288301 3.018688,0.04083 4.525781,0.128509 6.849904,-0.01186 13.702146,0.03739 20.550391,-0.06406 1.661254,-0.300739 1.719774,-3.145985 0.02344,-3.433593 -0.429251,-0.113243 -0.874625,-0.131493 -1.316406,-0.121094 z" />
	<path
   id="circle8"
   d="M 7.6738281,19.537109 C 5.8342312,19.683314 4.9227514,22.358923 6.3867188,23.544922 7.6144918,24.721703 10.01668,24.02145 10.233312,22.27319 10.50485,20.788598 9.2229002,19.285929 7.6738281,19.537109 Z" />
	<path
   id="circle10"
   d="m 14,19.537109 c -1.877529,0.143351 -2.763596,2.915027 -1.224609,4.0625 1.256326,1.112734 3.589989,0.381258 3.791015,-1.351562 C 16.819084,20.778459 15.528254,19.278506 14,19.537109 Z" />
	<path
   id="circle12"
   d="m 20.333984,19.537109 c -1.849223,0.141943 -2.762969,2.827396 -1.289062,4.015625 1.211289,1.137525 3.561376,0.502386 3.825324,-1.208303 0.325938,-1.496349 -0.9589,-3.065723 -2.536262,-2.807322 z" />
	<path
   id="path14"
   d="m 12.122087,35.550781 c 0,9.040365 0,18.080729 0,27.121094 13.251942,0 26.503884,0 39.755826,0 0,-9.09375 0,-18.1875 0,-27.28125 -13.251942,0 -26.503884,0 -39.755826,0 v 0.1 z m 36.370481,3.525391 c 0,6.636719 0,13.273437 0,19.910156 -10.995045,0 -21.990091,0 -32.985136,0 0,-6.636719 0,-13.273437 0,-19.910156 10.995045,0 21.990091,0 32.985136,0 z"
   style="stroke-width:0.958408" />
</g>
</svg>
