<svg enable-background="new 0 0 960 960" viewBox="0 0 960 960" xmlns="http://www.w3.org/2000/svg"><path d="m256.8 27.6 506.7 73c14.5 2.1 25.4 14.5 25.9 29.3l23.5 708.9c.5 15.7-10.8 29.4-26.3 31.4l-506.8 66.8c-17.8 2.4-33.6-11.4-34.1-29.5l-23.3-848.7c-.6-18.9 15.8-33.9 34.4-31.2zm-14.4 30.6 23.4 848.8c.2 6.3 5.6 11 11.5 10.2l506.8-66.8c5.2-.7 9.1-5.4 8.9-10.9l-23.5-708.9c-.2-5.2-3.9-9.5-8.8-10.2l-506.7-73c-6.2-.9-11.8 4.2-11.6 10.8z"/><path d="m209.5 32.2c-3.2 4.4-4.7 9.5-5.5 16.7l-.1 1c0 .7-.1 1.4-.1 2.1l-.1 1.1v1.1.6 1.2 1.2 1.3.6l1.2 841.1c.3 16.4 7.3 27.7 18.8 33.3 6.3 3.1 12.6 4 17.8 3.8h.4.3c5.5-.5 9.6-5.3 9.2-10.8-.5-5.4-5.1-9.5-10.5-9.2h-.2c-.6 0-1.7 0-2.9-.2-1.8-.2-3.5-.7-5.1-1.5-4.6-2.2-7.4-6.5-7.6-15.2v-.5-4.5l-1.2-836.7v-1-.9-.9-1.3l.1-1.2v-.7-.7l.1-.7.1-.7.1-.6c0-.1 0-.2 0-.3l.1-.6c0-.1 0-.2 0-.3l.1-.5.1-.5.1-.5.1-.4.1-.4c.1-.2.1-.4.2-.6l.1-.4c.3-.7.5-1.2.8-1.6 0-.1.1-.2.2-.3l.1-.1c.1-.2.3-.3.5-.4l.2-.1c.2 0 .5-.1.7-.2l.3-.1h.2l.3-.1c.1-.1.3-.1.4-.1l.4-.1h.2.4.5.2.5.3.6.6.6.7.7.7.7l15.5 1.7c5.4.6 10.3-3.3 11-8.6v-.3c.6-5.4-3.3-10.3-8.6-11h-.3l-15.7-1.7h-.3c-13.1-1-22.4 1.8-28.1 9.7z"/><path d="m229.6-.4c2.4 0 4.9.1 7.4.3.4 0 .7.1 1.1.1l15.6 1.6c.3 0 .6.1.9.1l2.8.3 2.5.3c.2.1.4.1.6.1.4.1.8.1 1.2.2l504 73.2c29 4.1 50.8 28.4 51.8 57.6l23.5 694.3c1 31-21.7 57.7-52.5 61.7l-506.8 65.4-.9.1c-1.7.1-3.4.3-5.1.3h-.8l-50.2 2.7h.6c-2.7.2-5.5.3-8.3.3h-1.3c-6.4-.1-12.7-.7-19-1.8l-23.3-4.1-.9-.1c-31.3-5.2-54.5-32.3-54.5-64.3v-821.2c0-32.6 24.7-59.9 57.2-63.1l.7-.1h.7l1.2-.1 45.1-3.5c2.2-.2 4.4-.3 6.7-.3zm0 40c-.9 0-1.8 0-2.6.1l-46.5 3.5-1.4.1c-12 1.2-21.1 11.3-21.1 23.3v821.1c0 12.6 9.3 23.2 21.8 24.9l23.9 4.2c4.4.8 8.9 1.2 13.3 1.2 1.9 0 3.7-.1 5.5-.2l51.4-2.7h.2c.8 0 1.6 0 2.5-.1l506.8-65.4c10.3-1.3 18-10.3 17.6-20.7l-23.4-694.2c-.3-9.7-7.5-17.8-17-19.3l-504.6-73.2-2.7-.3-3.7-.5-15.7-1.6c-1.6-.1-3-.2-4.3-.2z"/><g stroke="#000" stroke-miterlimit="10"><circle cx="685" cy="808" fill="#1d1d1b" r="7" stroke-width="4"/><circle cx="411" cy="840" fill="#1d1d1b" r="7" stroke-width="7"/><path d="m526.6 72 32.7 817" fill="none" stroke-width="20"/></g></svg>