<?xml version="1.0" encoding="UTF-8"?>
<svg xmlns="http://www.w3.org/2000/svg" xmlns:xlink="http://www.w3.org/1999/xlink" width="1024px" height="1024px" viewBox="0 0 1024 1024" version="1.1">
<g id="surface1">
<path style=" stroke:none;fill-rule:nonzero;fill:rgb(0%,0%,0%);fill-opacity:1;" d="M 4302.945312 704.722656 Z M 921.808594 461.570312 C 809.648438 492.292969 709.097656 565.457031 646.367188 674.113281 C 583.636719 782.769531 570.523438 906.519531 599.992188 1019.007812 L 709.898438 955.519531 C 701 899.753906 706.332031 842.644531 725.398438 789.488281 L 982.226562 937.746094 L 1042.585938 902.859375 L 1042.585938 833.183594 L 785.757812 684.945312 C 822.265625 641.839844 869.0625 608.648438 921.808594 588.449219 Z M 120.734375 461.570312 L 120.734375 588.449219 C 173.488281 608.644531 220.285156 641.835938 256.785156 684.945312 L 0 833.199219 L 0 902.875 L 60.359375 937.757812 L 317.144531 789.503906 C 336.644531 843.761719 341.355469 900.851562 332.6875 955.53125 L 442.550781 1019.019531 C 472.023438 906.519531 458.921875 782.785156 396.175781 674.128906 C 336.046875 569.671875 237.023438 493.253906 120.734375 461.570312 Z M 521.273438 0 L 460.914062 34.84375 L 460.914062 331.355469 C 404.15625 321.101562 352.394531 296.625 309.359375 261.765625 L 199.414062 325.195312 C 282.105469 406.976562 395.796875 457.460938 521.285156 457.460938 C 646.773438 457.460938 760.46875 406.976562 843.160156 325.195312 L 733.253906 261.765625 C 689.386719 297.351562 637.242188 321.289062 581.660156 331.355469 L 581.660156 34.84375 Z M 521.273438 0 "/>
</g>
</svg>
