<svg height="960" viewBox="0 0 960 960" width="960" xmlns="http://www.w3.org/2000/svg"><g fill="none" fill-rule="evenodd" stroke="#000" stroke-linejoin="round"><path d="m774.895997 180.192028c20.534045-8.410911 38.932821-10.806475 55.126018-8.163723 17.526558 2.860357 32.90635 11.462293 45.879672 26.294034 34.723065 39.697117 55.698035 67.760386 59.441002 97.208992 3.405188 26.791064-5.989974 55.828106-37.348301 96.206135-39.021363 50.245208-94.426656 85.275074-166.66677 104.436825l-1.297618.339709.286721 3.12201c3.323808 40.834894-8.723517 83.65809-35.607444 123.705413l-.819205 1.212701c-19.877897 29.27965-46.887978 56.182234-80.404643 79.806233-33.962569 23.958361-73.194675 43.565999-116.706718 58.194985-43.103468 14.501509-87.722355 23.148884-132.641525 25.703009-43.665346 2.486592-85.635852-.863456-124.778956-9.89667-39.913768-9.204548-74.955512-23.761054-104.256472-43.043253-31.466827-20.733894-55.0105086-46.142596-70.1886154-75.215763-5.3315652-10.215091-9.5835751-20.87844-12.6470698-31.689511l-2.1924248-7.429761-19.923267-69.245674c-6.6626346-25.373606-7.0736091-51.929706-1.0533152-78.907489 5.6722727-25.459671 16.9601408-50.817067 33.7537781-75.302485 20.2404574-29.556417 47.5379431-56.678648 81.2956751-80.533467 34.459516-24.352162 74.152857-44.185348 118.039498-58.902889 43.707138-14.657154 89.090157-23.439655 134.857875-26.157019 9.985858-.604153 20.053896-.879764 29.87459-.879764 33.750468 0 66.559011 3.494051 97.539643 10.342032 19.991575 4.413918 39.141103 10.262075 56.89847 17.386846 18.166287 7.27818 35.021662 15.928399 50.160726 25.700841 3.546328 2.29083 6.994897 4.638346 10.345184 7.041311l-1.276882-4.352563c52.690924-56.711734 97.691479-91.98165 134.310374-106.981045z" stroke-width="40"/><path d="m426.174508 231c33.75939 0 66.576609 3.493503 97.565434 10.340421 19.99681 4.413222 39.151354 10.260456 56.913376 17.384105 18.171095 7.277051 35.030931 15.925936 50.173999 25.696862 32.425596 20.937244 56.680276 46.608816 72.366687 76.074359 10.505089 19.698685 16.872285 40.572294 19.002232 62.006176l.103251 1.047594 7.158371 76.244468c3.365051 41.224407-8.962971 84.47845-36.435664 124.851857-19.881694 29.254343-46.896813 56.133953-80.419911 79.737555-33.967413 23.936495-73.20511 43.526326-116.723364 58.141962-43.108843 14.488014-87.733285 23.127383-132.658062 25.679132-43.670343 2.484253-85.645664-.862626-124.793259-9.887343-39.918661-9.195964-74.964729-23.739015-104.269283-43.003232-31.473692-20.716535-55.0219984-46.10456-70.2033584-75.153276-5.3333926-10.20781-9.5868308-20.863572-12.6513877-31.666932l-22.4842149-76.114849 1.0606003 1.286304-.5790576-1.996469c-6.6701547-25.378188-7.083132-51.939637-1.0590714-78.922973 5.674117-25.457264 16.9655636-50.812342 33.7646727-75.295461 20.2463267-29.552583 47.551695-56.671387 81.319225-80.523118 34.468997-24.348641 74.17326-44.178988 118.071976-58.894402 43.718926-14.654955 89.114184-23.436155 134.894263-26.153112 9.988518-.604061 20.059237-.879628 29.882546-.879628z" stroke-width="40"/><g stroke-linecap="round"><path d="m703.490624 421.330694c3.18717 38.638711-8.724201 79.048589-34.491657 116.81534-19.474147 28.556677-45.970871 54.742714-78.760904 77.795146-33.897439 23.842646-73.115831 43.325494-116.54777 57.903568-43.242869 14.496329-88.025303 23.161428-133.104846 25.722809-43.566988 2.479635-85.432351-.817462-124.488684-9.809546-39.083342-8.992083-73.43995-23.106929-102.124477-41.935807-29.6568832-19.482848-51.9670705-43.216499-66.3093337-70.574231-4.0514868-7.711393-7.4277258-15.722522-10.0476873-23.7609l-2.5119218-8.665099c-5.9421806-22.997934-6.2392897-47.05857-.8373073-71.500688 5.2669329-23.869894 15.8278084-47.603545 31.4125276-70.546982 19.4201267-28.638424 45.6737615-54.85171 78.0586455-77.95864 33.68136-24.033386 72.494604-43.570732 115.386344-58.094309 42.97277-14.550826 87.593144-23.270422 132.591658-25.968047 9.804598-.599472 19.690225-.87196 29.332764-.87196 32.979102 0 65.039868 3.433341 95.317979 10.191028 19.312087 4.305301 37.813877 10.000287 54.965171 16.948715 17.313354 7.002926 33.384251 15.313791 47.807544 24.714606 29.953992 19.537345 52.507269 43.37999 67.011592 70.901216 9.453469 17.90242 15.20658 36.867542 17.124284 56.35039z" stroke-width="20"/><path d="m538.888918 434.978123c1.603422 19.188524-4.389027 39.256635-17.352284 58.012132-9.797179 14.181646-23.127321 27.185999-39.623541 38.634159-17.053342 11.840592-36.783582 21.516046-58.633601 28.755722-21.7549 7.19908-44.284334 11.502289-66.96324 12.774307-21.91796 1.231422-42.979856-.405963-62.628566-4.871558-19.662299-4.465594-36.946642-11.475224-51.377438-20.825909-14.919975-9.675454-26.143927-21.461918-33.359325-35.048151-2.038248-3.829585-3.736788-7.808024-5.054855-11.799995l-1.263714-4.303209c-2.98943-11.421096-3.138902-23.369945-.421238-35.508243 2.649722-11.854123 7.962756-23.640586 15.803216-35.034618 9.770002-14.222242 22.977849-27.240127 39.270245-38.715352 16.944635-11.935316 36.47105-21.637835 58.049302-28.850447 21.619017-7.226144 44.066922-11.556417 66.705063-12.896095 4.93256-.297707 9.905885-.433028 14.756915-.433028 16.591339 0 32.720674 1.705045 47.953181 5.061007 9.715649 2.138073 19.023648 4.966283 27.652231 8.416969 8.710113 3.477751 16.795163 7.605043 24.051326 12.273619 15.069447 9.702519 26.415694 21.543111 33.712622 35.210537 4.755912 8.890592 7.650224 18.308937 8.614995 27.984392z" stroke-width="20"/><path d="m448.590897 447.974985c.747608 8.896497-2.046418 18.200803-8.090636 26.896534-4.568009 6.575126-10.78329 12.604417-18.47478 17.912201-7.951251 5.489728-17.150627 9.975621-27.338365 13.332198-10.143389 3.337755-20.647911 5.33288-31.222125 5.922633-10.219417.570932-20.039687-.188219-29.201049-2.258631-9.167698-2.070412-17.226655-5.320331-23.955124-9.655649-6.956553-4.485892-12.189807-9.950525-15.554042-16.249597-.950348-1.775535-1.742306-3.620084-2.356865-5.470907l-.589216-1.995124c-1.393845-5.295236-1.463537-10.835156-.196405-16.462913 1.235453-5.496002 3.712696-10.960635 7.368371-16.243323 4.555338-6.593948 10.713598-12.629513 18.310052-17.949845 7.900566-5.533646 17.004907-10.032087 27.065933-13.376116 10.080032-3.350303 20.54654-5.357975 31.101747-5.979099 2.299844-.138027 4.618694-.200767 6.880525-.200767 7.735838 0 15.256265.790521 22.358538 2.346467 4.529996.991288 8.869922 2.302549 12.893065 3.902413 4.061157 1.612412 7.830873 3.525974 11.214115 5.690496 7.026245 4.49844 12.31652 9.988169 15.718768 16.324885 2.217481 4.122002 3.566976 8.488689 4.016808 12.974582z" stroke-width="20"/><path d="m713.558798 393.751998c132.636239-125.960676 207.526136-154.450683 221.407152-100.551457" stroke-width="40"/><path d="m394.687116 506.115918-152.376868 41.341058" stroke-width="20"/><path d="m417.590521 412.44546 111.85889 61.804365" stroke-width="20"/><path d="m290.710132 465.056943 10.586354-100.72303" stroke-width="20"/></g></g></svg>