<svg height="960" viewBox="0 0 960 960" width="960" xmlns="http://www.w3.org/2000/svg"><g fill="none" fill-rule="evenodd" stroke="#000" stroke-linejoin="round"><path d="m76.2798972 129.744831 750.7658258 13.51108c17.004791.306025 31.167598 13.129986 33.155235 30.020985l56.75339 482.29207c2.194509 18.649007-11.144497 35.546015-29.793504 37.740524-.22117.026026-.44259.049878-.664228.071554l-766.891845 74.999079c-18.688524 1.827666-35.3201831-11.840761-37.1478491-30.529286-.0291553-.298123-.0543696-.596618-.0756362-.895407l-40.6273706-570.802229c-1.333146-18.730297 12.7700317-34.994932 31.5003292-36.328078 1.0068591-.071664 2.0164101-.098455 3.0256529-.080292z" stroke-linecap="round" stroke-width="20"/><path d="m75.6779972 109.739327.9617697.008742 750.7658251 13.511079c13.503805.24302 25.879175 5.456397 35.273198 13.962379s15.8067 20.304569 17.385117 33.71801l56.75339 482.29207c1.742698 14.809505-2.682322 28.923364-11.245394 39.770521-8.563072 10.847158-21.264195 18.427613-36.0737 20.170311-.351269.041336-.702937.079219-1.055172.113666l-84.023614 8.216245c-1.448036 6.697306-3.333661 15.091155-5.660549 25.180858-4.15551 18.018863-13.368322 30.047755-25.374481 38.643912-13.092109 9.373675-30.212506 14.219945-48.034479 17.995901l-1.63635.344802-1.718499.358862c-.742725.154586-1.485753.308701-2.228392.462733-20.089922 4.167212-144.298077 17.250982-256.840935 29.028959-49.284181 5.15775-96.308904 10.078927-131.151467 13.898747-120.058261 13.162092-172.764417-9.626023-203.025685-23.204197-12.794996-5.741091-22.099442-13.35445-28.410336-22.275258-4.1211813-5.825524-7.0559076-12.266897-8.7103048-19.356154-5.7031423-2.932958-10.8419849-6.858818-15.1646119-11.576137-7.6290168-8.32561-12.7275647-19.102312-13.9114452-31.207904-.0463054-.47349-.0863516-.94757-.1201279-1.422118l-40.6273707-570.802229c-1.0586748-14.87406 4.011779-28.769106 13.0654164-39.210306 9.0536374-10.441201 22.0904585-17.428555 36.9645183-18.48723 1.5991291-.113819 3.2025336-.156369 4.8054487-.127522z" stroke-width="40"/><path d="m118.474608 189.858637 685.216019 7.885591c3.993577.045958 7.341478 3.030236 7.844288 6.992299l54.306955 427.930427c.556245 4.383123-2.546053 8.387273-6.929177 8.943518-.124872.015847-.250101.028744-.375581.038682l-700.505096 55.477076c-4.403946.347025-8.256896-2.939708-8.608357-7.343302l-39.016002-491.291493c-.349777-4.404411 2.937154-8.258442 7.341565-8.608219.241299-.019163.483343-.027365.725386-.024579z" stroke-linecap="round" stroke-width="20"/></g></svg>