<svg height="584" viewBox="0 0 600 584" width="600" xmlns="http://www.w3.org/2000/svg"><path d="m573.475 257.69276-246.95-246.7695528c-14.575-14.56427628-38.45-14.56427628-53.025 0l-246.975 246.7695528c-14.575 14.564277-26.525 43.36557-26.525 63.975395v224.834454c0 20.609825 16.875 37.472409 37.5 37.472409h230.675l-101.575-101.500265c-5.225 1.798676-10.8 2.822922-16.6 2.822922-28.25 0-51.25-22.983078-51.25-51.212293 0-28.229214 23-51.212292 51.25-51.212292s51.25 22.983078 51.25 51.212292c0 5.820715-1.025 11.391613-2.825 16.612768l79.075 79.01682v-289.48685c-17-8.342608-28.75-25.779769-28.75-45.939925 0-28.229214 23-51.212292 51.25-51.212292s51.25 22.983078 51.25 51.212292c0 20.160156-11.75 37.597317-28.75 45.939925v203.025512l78.65-78.592133c-1.55-4.896395-2.4-10.092569-2.4-15.488595 0-28.229215 23-51.212293 51.25-51.212293s51.25 22.983078 51.25 51.212293c0 28.229214-23 51.212292-51.25 51.212292-6.25 0-12.2-1.174136-17.725-3.222627l-109.775 109.694232v77.143199h240c20.625 0 37.5-16.862584 37.5-37.472409v-224.834454c0-20.609825-11.925-49.388635-26.525-63.977893z" fill="#1d2126"/></svg>