<?xml version="1.0" encoding="UTF-8"?>
<svg width="960px" height="960px" viewBox="0 0 960 960" version="1.1" xmlns="http://www.w3.org/2000/svg" xmlns:xlink="http://www.w3.org/1999/xlink">
    <title>Streaming box/ assets/icon</title>
    <g id="Streaming-box" stroke="none" stroke-width="1" fill="none" fill-rule="evenodd">
        <g id="icon" transform="translate(21, 54)">
            <path d="M150.742,841.291235 C131.79,841.291235 112.709,839.676235 94.028,836.490235 C74.895,833.226235 61.008,816.662235 61.008,797.102235 L61.008,54.3012348 C61.008,34.7822348 74.865,18.2232348 93.958,14.9262348 C112.885,11.6562348 132.217,9.99823476 151.416,9.99823476 C192.052,9.99823476 233.981,17.4342348 276.04,32.0962348 C292.214,37.7352348 303.081,52.9442348 303.082,69.9412348 L303.097,781.119235 C303.097,798.091235 292.249,813.293235 276.105,818.948235 C233.778,833.774235 191.599,841.291235 150.742,841.291235 Z" id="Path" stroke="#000000" stroke-width="20" stroke-linecap="round" stroke-linejoin="round"></path>
            <ellipse id="Oval" fill="#000000" fill-rule="nonzero" cx="248.19" cy="89.1802348" rx="24.024" ry="25.736"></ellipse>
            <ellipse id="Oval" fill="#000000" fill-rule="nonzero" cx="257.762" cy="168.908235" rx="24.024" ry="25.736"></ellipse>
            <ellipse id="Oval" fill="#000000" fill-rule="nonzero" cx="189.715" cy="166.387235" rx="24.024" ry="25.736"></ellipse>
            <ellipse id="Oval" fill="#000000" fill-rule="nonzero" cx="189.715" cy="245.372235" rx="24.024" ry="25.736"></ellipse>
            <ellipse id="Oval" fill="#000000" fill-rule="nonzero" cx="189.715" cy="720.811235" rx="24.024" ry="25.736"></ellipse>
            <ellipse id="Oval" fill="#000000" fill-rule="nonzero" cx="121.669" cy="165.597235" rx="24.024" ry="25.736"></ellipse>
            <ellipse id="Oval" fill="#000000" fill-rule="nonzero" cx="257.762" cy="249.449235" rx="24.024" ry="25.736"></ellipse>
            <ellipse id="Oval" fill="#000000" fill-rule="nonzero" cx="121.669" cy="244.056235" rx="24.024" ry="25.736"></ellipse>
            <ellipse id="Oval" fill="#000000" fill-rule="nonzero" cx="121.669" cy="724.723235" rx="24.024" ry="25.736"></ellipse>
            <ellipse id="Oval" fill="#000000" fill-rule="nonzero" cx="257.762" cy="717.246235" rx="24.024" ry="25.736"></ellipse>
            <path d="M94.405,544.522235 L94.405,651.729235 C94.405,668.133235 107.779,681.390235 124.182,681.247397 L124.241,681.247397 C137.912,681.126235 148.932,670.009235 148.932,656.337235 L148.932,539.913235 C148.932,526.365235 138.104,515.301235 124.559,515.010235 L124.559,515.010235 C108.012,514.654235 94.406,527.970235 94.406,544.521235 L94.405,544.522235 Z" id="Path" fill="#000000" fill-rule="nonzero"></path>
            <path d="M230.933,542.789235 L230.933,643.699235 C230.933,659.139235 244.094,671.618235 260.236,671.483336 L260.294,671.483336 C273.748,671.369235 284.592,660.905235 284.592,648.037235 L284.592,538.452235 C284.592,525.700235 273.936,515.286235 260.607,515.012235 L260.607,515.012235 C244.323,514.677235 230.934,527.211235 230.934,542.790235 L230.933,542.789235 Z" id="Path" fill="#000000" fill-rule="nonzero"></path>
            <path d="M75.355,11.3212348 L23.462,43.3702348 C8.878,52.3772348 0,68.2952348 0,85.4352348 L0,765.982235 C0,783.214235 8.972,799.202235 23.68,808.181235 L76.22,840.255235" id="Path" stroke="#000000" stroke-width="20" stroke-linecap="round" stroke-linejoin="round"></path>
            <path d="M540.678,785.335235 C500.307,785.335235 467.463,748.103596 467.463,702.339589 L467.463,358.325222 C467.463,312.563478 500.34,275.335235 540.751,275.335235 C541.35,275.335235 541.944,275.343157 542.547,275.359002 L836.429,283.324357 C855.679,283.8461 873.689,292.722524 887.141,308.314836 C900.593,323.907148 908.001,344.49733 908.001,366.290577 L908.001,675.839336 C908.001,696.770178 901.091,716.766184 888.544,732.143461 C875.996,747.520738 858.933,756.904192 840.497,758.566754 L546.615,785.067007 C544.641,785.244694 542.644,785.335235 540.677,785.335235 L540.678,785.335235 Z" id="Path" stroke="#000000" stroke-width="20" stroke-linecap="round" stroke-linejoin="round"></path>
            <path d="M518.501,275.390235 L451.339875,282.295937 C413.533557,286.242528 384.501,324.609141 384.501,370.625387 L384.501,678.935452 C384.501,717.089514 404.630167,750.963768 434.476107,763.036017 L507.045176,792.390235" id="Path" stroke="#000000" stroke-width="20" stroke-linecap="round" stroke-linejoin="round"></path>
            <line x1="76.221" y1="840.255235" x2="70.431" y2="836.725235" id="Path" stroke="#000000" stroke-width="40" stroke-linecap="round" stroke-linejoin="round"></line>
            <path d="M313.101,781.115235 C313.101,802.445235 299.541,821.335235 279.411,828.386235 C216.791,850.326235 154.431,856.936235 92.351,846.346235 C84.121,844.946235 76.671,841.556235 70.431,836.726235 L70.411,836.706235 L23.681,808.186235 C8.971,799.206235 0.001,783.216235 0.001,765.986235 L0.001,85.4352348 C0.001,68.2952348 8.881,52.3752348 23.461,43.3652348 L73.861,12.2452348 L75.351,11.3252348 C80.431,8.29523476 86.131,6.13523476 92.261,5.07523476 C154.351,-5.65476524 216.711,0.825234756 279.331,22.6552348 C299.491,29.6852348 313.081,48.5952348 313.081,69.9452348 L313.101,781.115235 Z" id="Path" stroke="#000000" stroke-width="40" stroke-linecap="round" stroke-linejoin="round"></path>
            <path d="M918.001,375.180313 L918.001,677.385686 C918.001,725.405303 884.611,765.359039 841.291,769.170996 L547.411,795.037063 C537.391,795.920995 527.671,794.80503 518.551,792.020644 L510.341,788.993176 L510.311,788.982127 L439.241,762.784586 C406.551,750.729961 384.501,716.919554 384.501,678.844174 L384.501,371.125274 C384.501,325.193946 416.301,286.908632 457.721,282.964085 L528.631,276.323544 C533.231,275.561153 537.961,275.229678 542.781,275.362268 L836.671,283.140871 C881.901,284.33418 918.001,325.193946 918.001,375.180313 L918.001,375.180313 Z" id="Path" stroke="#000000" stroke-width="40" stroke-linecap="round" stroke-linejoin="round"></path>
            <path d="M518.551,792.335235 C515.751,791.565235 513.021,790.645235 510.341,789.595235 L518.551,792.335235 Z" id="Path" stroke="#000000" stroke-width="40" stroke-linecap="round" stroke-linejoin="round"></path>
            <line x1="518.741" y1="792.395235" x2="518.551" y2="792.335235" id="Path" stroke="#000000" stroke-width="40" stroke-linecap="round" stroke-linejoin="round"></line>
            <path d="M186.959,314.050235 C167.347,314.050235 149.292,321.213235 134.962,333.227235 C131.749,335.921235 131.454,340.760235 134.329,343.810235 L149.658,360.071235 C152.172,362.738235 156.294,363.140235 159.236,360.954235 C167.216,355.026235 176.904,351.555235 187.358,351.555235 C198.058,351.555235 207.957,355.194235 216.046,361.382235 C218.891,363.559235 222.916,363.278235 225.523,360.821235 L241.348,345.904235 C244.43,342.998235 244.407,338.063235 241.259,335.229235 C226.579,322.012235 207.639,314.049235 186.96,314.049235 L186.959,314.050235 Z M141.108,374.391235 L125.479,357.813235 C122.067,354.194235 116.123,354.996235 113.765,359.374235 C106.606,372.662235 102.509,388.078235 102.509,404.513235 C102.509,422.133235 107.219,438.584235 115.357,452.490235 C117.708,456.507235 123.214,457.252235 126.601,454.060235 L142.687,438.897235 C145.033,436.686235 145.678,433.177235 144.185,430.320235 C140.195,422.685235 137.924,413.884235 137.924,404.513235 C137.924,396.592235 139.55,389.081235 142.46,382.335235 C143.621,379.643235 143.12,376.525235 141.109,374.391235 L141.108,374.391235 Z M249.955,359.850235 L234.248,374.652235 C232.03,376.742235 231.277,379.995235 232.457,382.805235 C235.24,389.431235 236.792,396.780235 236.792,404.513235 C236.792,415.852235 233.46,426.358235 227.791,434.973235 C225.96,437.755235 226.346,441.446235 228.631,443.870235 L243.352,459.485235 C246.496,462.820235 251.94,462.477235 254.568,458.723235 C265.144,443.616235 271.409,424.849235 271.409,404.514235 C271.409,389.106235 267.808,374.595235 261.458,361.895235 C259.277,357.532235 253.505,356.506235 249.955,359.851235 L249.955,359.850235 Z M187.357,457.470235 C178.161,457.470235 169.56,454.782235 162.19,450.101235 C159.381,448.317235 155.724,448.658235 153.302,450.940235 L136.701,466.585235 C133.478,469.622235 133.671,474.840235 137.156,477.572235 C151.116,488.517235 168.333,494.976235 186.958,494.976235 C202.984,494.976235 217.97,490.198235 230.732,481.894235 C234.514,479.433235 235.102,474.119235 232.007,470.836235 L216.368,454.244235 C214.197,451.941235 210.774,451.280235 207.935,452.677235 C201.673,455.758235 194.704,457.470235 187.357,457.470235 L187.357,457.470235 Z" id="Shape" fill="#000000" fill-rule="nonzero"></path>
            <ellipse id="Oval" fill="#000000" fill-rule="nonzero" cx="187.358" cy="404.513235" rx="41.676" ry="44.646"></ellipse>
        </g>
    </g>
</svg>
