<svg height="960" viewBox="0 0 960 960" width="960" xmlns="http://www.w3.org/2000/svg"><g fill="none" fill-rule="evenodd"><g stroke="#000" stroke-linejoin="round"><path d="m593.899669 704.524792c-1.081621 2.792026-2.162259 5.4777-2.555219 8.271874l-.391977.428634c-1.768317 5.479848-3.144658 12.891232-4.618256 21.164181-1.473598 9.452496-2.553254 19.980336-3.634875 31.368666-.687679 12.568951-1.374376 25.888817-1.768318 38.458843-.392959 14.502637-.392959 28.252211 0 41.143443v4.297078l-31.927957 37.278222h.393942l-10.806386 10.205559-27.606385 26.3196-.68768.429707c-5.010233 4.725711-10.019484 9.453571-36.249529 10.634193h-.393942c-25.837085-1.180622-30.846336-5.908482-35.857552-10.634193l-.687679-.429707-27.605403-26.3196-10.806386-10.205559h.393942l-31.53598-37.278222h-.391977v-4.297078c.391977-12.891232.391977-26.640806 0-41.143443-.295702-12.570026-1.081621-25.889892-1.7693-38.458843-1.080639-11.38833-2.160295-21.91617-3.633893-31.368666-1.376341-8.272949-2.849939-15.684333-4.617274-21.164181h-.393942v-.428634c-.294719-2.794174-1.374376-5.479848-2.847974-8.271874" stroke-width="40"/><path d="m473.899282 298.524792c117.766774 0 188.325708 0 192.298597-9.264106h.15355l1.304294-2.514732c4.781233-11.098444 11.127089-22.196887 18.080969-34.161447 15.908323-28.179608 33.641598-59.220745 34.94501-94.683128.112074-6.497638.233855-12.408182.217967-17.847818.053834-15.78639-1.180744-27.518577-7.324515-37.904059-8.259055-13.6122945-24.427708-23.7574812-56.505566-36.0697207-29.555753-11.0984434-59.980741-19.3353562-89.536494-24.7107384-11.630981-2.0904753-23.149006-3.7901418-34.411997-5.1298064-20.152131-2.4073473-39.450029-3.6211433-57.298026-3.7021217-.636262-.0026406-1.281349-.0123228-1.913199-.0123228h-.01059-.01059c-.630967 0-1.276054.0096822-1.912317.0123228-17.848879.0809784-37.146777 1.2947744-57.298026 3.7021217-11.26299 1.3396646-22.781898 3.0393311-34.412879 5.1298064-29.555753 5.3753822-59.980741 13.612295-89.536494 24.7107384-32.076976 12.3122395-48.245628 22.4574262-56.504684 36.0697207-6.14377 10.385482-7.378348 22.117669-7.324623 37.904059-.016662 5.439636.106002 11.35018.217193 17.847818 1.303412 35.462383 19.037569 66.50352 34.94501 94.683128 6.954762 11.96456 13.300619 23.063003 18.081852 34.161447l1.304294 2.514732h.15355c3.972889 9.264106 74.53094 9.264106 192.297714 9.264106" stroke-width="20"/><path d="m365.210497 716.524792c-12.13399-8.645977-23.060759-32.717033-23.060759-32.717033 0-60.113736-6.442045-119.963042-14.82553-174.700036-16.148355-105.860112-39.9751-187.921531-41.564432-193.386417-.616848-1.851009-1.323708-3.173159-1.940556-4.142735-1.677579-3.878306-2.91304-6.787035-2.29531-20.625534l1.334298.104009c-.612436-.452175-1.039552-.929912-1.25664-1.436736h-.15355l-1.304294-2.518254c-4.780351-11.11399-11.12709-22.227979-18.081852-34.210181-15.907441-28.21908-33.641598-59.302817-34.94501-94.814874-.111191-6.506739-.233855-12.426444-.217193-17.872819-.053725-15.808502 1.180853-27.557123 7.324623-37.957152 8.259056-13.6322442 24.427708-23.7907604 56.504684-36.1202463 29.555753-11.1139896 59.980741-19.3624404 89.537377-24.7453522 11.630098-2.0934035 23.149006-3.7963322 34.411996-5.1369919 20.151249-2.4107195 39.449147-3.6262157 57.298026-3.708189.636263-.0026443 1.282232-.0114586 1.912317-.0114586h.00706.01412c.63185 0 1.276937.0088143 1.913199.0114586 17.847997.0819733 37.146778 1.2974695 57.298026 3.708189 11.262991 1.3406597 22.781016 3.0435884 34.411997 5.1369919 29.555753 5.3829118 59.980741 13.6313626 89.536494 24.7453522 32.077858 12.3294859 48.246511 22.4880021 56.505566 36.1202463 6.143771 10.400029 7.378349 22.14865 7.324515 37.957152.015888 5.446375-.105893 11.36608-.217967 17.872819-1.303412 35.512057-19.036687 66.595794-34.94501 94.814874-6.95388 11.982202-13.299736 23.096191-18.080969 34.210181l-1.304294 2.518254h-.15355c-.212676.495366-.626555.963407-1.216929 1.407649l1.300764-.074922c.61773 13.838499-.705978 16.747228-2.294428 20.625534-.61773.881433-1.323708 2.203583-1.941438 4.142735-1.323708 5.464886-25.415194 87.526305-41.56355 193.386417-8.031378 53.414845-14.119553 112.999721-14.473424 171.526877v3.085016l-.022062.288228s-5.831375 23.870971-17.965365 32.516948" stroke-width="40"/><path d="m342.899669 682.524792c2.550521 1.647059 5.101921 2.653595 8.004237 3.660131 5.293649 1.939869 13.25391 3.541176 22.953803 4.859738 25.610742 3.49451 63.367237 5.013464 96.217059 5.480131h3.517959 3.868876c32.717019-.366013 97.272447-.639608 127.438066-12.718954" stroke-width="20"/></g><path d="m366.09701 829.524792c-8.415558 41.333333 27.530706 62 107.838791 62 80.308086 0 114.533252-20.666667 102.675499-62-32.443355 6.577329-66.619541 9.865993-102.528558 9.865993-35.909016 0-71.90426-3.288664-107.985732-9.865993z" fill="#000"/><path d="m364.899669 728.524792c32.081931 5.333333 78.415264 8 139 8" stroke="#000" stroke-linejoin="round" stroke-width="20"/><path d="m364.899669 763.524792c32.081931 6 78.415264 9 139 9" stroke="#000" stroke-linejoin="round" stroke-width="20"/><path d="m364.899669 800.524792c32.081931 5.333333 78.415264 8 139 8" stroke="#000" stroke-linejoin="round" stroke-width="20"/></g></svg>