<svg height="960" viewBox="0 0 960 960" width="960" xmlns="http://www.w3.org/2000/svg"><g fill="none" fill-rule="evenodd" transform="matrix(-1 0 0 1 923.624868 -82.145859)"><g stroke="#000" stroke-linecap="round" stroke-linejoin="round"><path d="m886.679051 473.602264-6.16515 416.300431c-.109135 7.369325-2.480987 14.526673-6.793757 20.500979l-70.486122 97.641586-.575148.55212c-6.408682 6.94476-15.970687 10.41395-26.057696 9.14441l-727.5171894-91.564085c-28.0464655-3.529881-49.0839886-27.396014-49.0839886-55.6836v-396.402527c0-73.215371 152.65097-315.455871 424.404554-315.455871 314.165975 0 462.274497 266.129298 462.274497 315.455871" stroke-width="40"/><path d="m443.054182 183.145859c31.194475-122.0000004 89.527808-183.00000038 175-183.00000038" stroke-width="40"/><path d="m793.907935 1017.14586 8.146247-485.218927c0-48.439228-140.225002-309.781074-437.668552-309.781074-180.802071 0-305.9199239 117.470399-364.33144775 212.263225" stroke-width="20"/></g><g fill="#000" transform="translate(124.020244 789.308592)"><ellipse cx="34" cy="39" rx="27" ry="34" transform="matrix(.9781476 -.20791169 .20791169 .9781476 -7.365574 7.921241)"/><ellipse cx="125" cy="50" rx="27" ry="34" transform="matrix(.9781476 -.20791169 .20791169 .9781476 -7.664035 27.081581)"/><ellipse cx="216" cy="61" rx="27" ry="34" transform="matrix(.9781476 -.20791169 .20791169 .9781476 -7.962495 46.241922)"/><ellipse cx="306.792088" cy="71.021852" rx="27" ry="35" transform="matrix(.9781476 -.20791169 .20791169 .9781476 -8.06213 65.33766)"/><ellipse cx="397.792088" cy="82.021852" rx="27" ry="35" transform="matrix(.9781476 -.20791169 .20791169 .9781476 -8.36059 84.498)"/><ellipse cx="488.480221" cy="91.554631" rx="27" ry="36.5" transform="matrix(.9781476 -.20791169 .20791169 .9781476 -8.360813 103.561437)"/></g></g></svg>