<svg height="960" viewBox="0 0 960 960" width="960" xmlns="http://www.w3.org/2000/svg"><g fill="none" fill-rule="evenodd" transform="translate(34.561307 21.379511)"><g stroke="#000"><path d="m66.3293718-.37951109c.2500114.00389129.4988449.01052423.748546.02123052l798.7215492 34.24632787c13.607869.5834568 24.639226 11.4324234 24.639226 24.2318451v751.2693206c0 12.799421-11.031357 24.313341-24.639226 25.717058l-798.1616461 82.334703c-.3288631.119677-.6550225.179515-.9784783.179515-.3118871 0-.6204613-.00826-.9240992-.023404-.2267922.01077-.4528869.017517-.6781252.020884l-.3989642.002434c-4.8711509-.013463-9.326657-1.611138-12.9481491-4.381574-43.95585201-18.343026-50.46554499-33.867-51.1918323-46.434603l-1.07948003-.715301v-830.0258819l1.44258367-.4505797c1.1343032-11.38712 5.11410939-22.0563782 18.87037546-25.4657229 11.0516903-2.73904423 23.3943173-5.57330879 37.0278812-8.50279369 2.7862788-1.27536378 5.8519638-1.99002802 9.0808616-2.02231385l.4042106-.00047469c.0186227.0001422.0372505.00030707.0558836.00049465z" stroke-linecap="round" stroke-linejoin="round" stroke-width="40"/><path d="m74.3591726 11.6466489 778.5949724 33.3789129c13.264971.5686786 24.018354 11.142855 24.018354 23.6180841v732.2406451c0 12.475229-10.753383 23.697516-24.018354 25.065679l-778.5949724 80.305114c-13.2649706 1.368163-24.0183539-9.206013-24.0183539-23.618084v-845.9246721c0-14.4120709 10.7533833-25.6343576 24.0183539-25.065679z" stroke-linecap="round" stroke-linejoin="round" stroke-width="20"/><path d="m366.673184 789.367395c184.832996 60.055881 384.169776-43.604639 445.231158-231.532251 61.061383-187.927613-39.275334-388.957954-224.10833-449.013835-184.832996-60.0558808-384.169775 43.604639-445.231158 231.532251-61.0613829 187.927613 39.275334 388.957954 224.10833 449.013835z" stroke-linecap="round" stroke-linejoin="round" stroke-width="20"/><path d="m395.382583 736.416337c155.779905 50.615959 323.783807-36.750616 375.247218-195.138709 51.463411-158.388092-33.101816-327.819353-188.881721-378.435313-155.779906-50.615959-323.783808 36.750617-375.247219 195.138709-51.463411 158.388093 33.101816 327.819353 188.881722 378.435313z" stroke-width="30"/><g stroke-linecap="round" stroke-linejoin="round"><path d="m442.950043 630.853461c100.997025 32.815923 209.918464-23.824153 243.282842-126.509151s-21.462715-212.530197-122.45974-245.34612c-100.997026-32.815923-209.918464 23.824154-243.282842 126.509151-33.364379 102.684998 21.462715 212.530198 122.45974 245.34612z" stroke-width="20"/><path d="m346.436695 354.704103.001998 57.916386-15.641664-.000048c.177538-1.241572.364762-2.484225.561735-3.72786 3.021906-19.079563 8.154412-37.230024 15.077931-54.188478z" stroke-width="20"/><path d="m329.325246 469.56307 17.113447 4.818637-.003671 63.69147c-8.992272-21.209175-14.870679-44.32019-17.109776-68.510107z" stroke-width="20"/><path d="m438.134363 627.133385c65.670103-4.777667 124.753795-42.953349 156.810842-99.643128m24.583689-74.377068c1.858021-14.069359 1.623684-28.011189-.500005-41.590263m-21.271492-68.492038c-23.246965-43.156082-63.161193-76.627889-112.853559-90.897503" stroke-width="20"/></g></g><path d="m528.627419 454.369255c11.336976 1.7956 22.169328-7.115429 24.194734-19.903341s-5.523112-24.610186-16.860089-26.405786c-11.336976-1.795601-22.169327 7.115428-24.194733 19.903341-2.025407 12.787912 5.523112 24.610185 16.860088 26.405786z" fill="#000"/><path d="m378.903742 461.267454c12.399817 1.963938 24.247701-7.782501 26.46299-21.76928 2.215288-13.986779-6.040905-26.91739-18.440722-28.881328-12.399818-1.963938-24.247702 7.7825-26.46299 21.769279s6.040904 26.91739 18.440722 28.881329z" fill="#000"/><g stroke="#000" stroke-linecap="round" stroke-linejoin="round" stroke-width="20"><path d="m583.538283 343.16736v63.621737l89.209074 3.509383c-1.173983-11.2992-3.652966-22.48772-7.436948-33.56556s-8.365587-23.024211-13.744817-35.839114z"/><path d="m583.538283 451.113382v66.645931l66.335909 10.133169c6.940398-11.928367 11.815361-22.643629 14.624887-32.145785s5.10675-21.462618 6.891673-35.881386l-68.703597-8.751929z"/><path d="m651.360459 340.620489-.843533 68m-.141824 49-.872819 71"/></g></g></svg>