<?xml version="1.0" encoding="UTF-8"?>
<svg width="960px" height="960px" viewBox="0 0 960 960" version="1.1" xmlns="http://www.w3.org/2000/svg" xmlns:xlink="http://www.w3.org/1999/xlink">
    <title>drivers/mss315-eu-matter/assets/icon</title>
    <g id="/drivers/mss315-eu-matter/assets/icon" stroke="none" fill="none" fill-rule="evenodd" stroke-width="1">
        <g id="Matter-Smart-Plug-EU" transform="translate(-0, -0)" fill="#000000">
            <path d="M681.516036,156.294185 C720.9424,157.189296 757.002242,161.360772 788.472767,167.851938 C812.525646,172.813127 832.99505,179.037052 843.567226,184.259084 C882.933869,203.70389 910.420421,235.800178 928.193088,276.295884 C934.826967,291.411433 939.870469,307.169811 943.729667,323.640444 C946.515059,335.528197 948.350449,346.046127 950.212944,359.17365 L950.524442,361.404612 C950.64695,362.295673 950.766693,363.208439 950.883893,364.143717 L950.902936,364.298118 L951.108735,365.993866 L951.126412,366.141828 C951.16236,366.447552 951.198066,366.755575 951.233534,367.065915 L951.248958,367.202967 L951.449147,369.009787 L951.463519,369.1415 C951.498198,369.464262 951.532646,369.789414 951.566865,370.11697 L951.579472,370.239478 L951.773762,372.15637 L951.785548,372.274397 C951.818968,372.614166 951.852165,372.956398 951.885141,373.301106 L951.895528,373.411293 L952.081865,375.417673 L952.100397,375.622963 L952.280976,377.68256 L952.297391,377.875131 L952.483193,380.120174 C952.513722,380.499649 952.544041,380.881713 952.580927,381.354191 L952.753035,383.616971 L952.765274,383.78243 L952.938752,386.196668 C952.967252,386.604581 952.995547,387.015145 953.028718,387.504151 L953.190189,389.947995 L953.199421,390.091646 L953.355667,392.593228 L953.363935,392.729338 L953.51591,395.303553 L953.523325,395.432697 L953.670988,398.079328 L953.677645,398.202023 L953.82096,400.920874 L953.826942,401.037589 L953.969199,403.895976 C953.992518,404.378176 954.01564,404.863129 954.041066,405.404854 L954.173881,408.314331 L954.178473,408.417865 L954.310489,411.487072 L954.437636,414.623468 L954.556416,417.732415 L954.560554,417.844875 L954.730711,422.653082 L954.735011,422.780328 L954.894979,427.747928 L954.898078,427.848062 L955.001062,431.318568 L955.099406,434.861107 L955.193324,438.485591 L955.322601,443.931803 L955.324854,444.032033 L955.445448,449.716278 L955.520285,453.608908 L955.623516,459.56546 L955.715994,465.662535 L955.771866,469.817979 L955.823198,474.055009 L955.891185,480.516766 L955.930769,484.922586 L955.981269,491.643176 L956.009127,496.21216 L956.032336,500.852402 L956.050887,505.561659 L956.064793,510.347858 L956.076896,517.638878 L956.07915,522.595354 L956.073852,530.131804 L956.071955,531.403734 L956.069759,532.382 L956.10628,534.846881 C957.253865,629.697745 936.112309,698.880158 887.770756,741.702057 L886.282411,743.004696 C857.256063,768.105249 821.483837,783.658173 778.966295,792.415785 C748.625364,798.665302 720.608965,800.95775 675.369645,802.407743 L670.701061,802.552312 L663.861112,802.750511 L652.813348,803.059558 L648.528715,803.184375 L644.287751,803.315561 C643.573733,803.338478 642.876262,803.36134 642.224098,803.383184 L640.157763,803.454035 C639.147339,803.489532 638.143011,803.523268 637.081418,803.557229 L634.139698,803.646762 C633.661148,803.660569 633.183996,803.673965 632.643469,803.688667 L629.776942,803.762213 C629.311002,803.773413 628.846407,803.784213 628.316918,803.796045 L625.523719,803.854068 C625.070078,803.862741 624.61773,803.871023 624.098989,803.880044 L621.377259,803.923007 C620.03108,803.941983 618.696425,803.957428 617.303,803.96994 L614.779331,803.988294 L614.662525,803.988973 L612.211525,804.00002 L608.177456,804.00002 L605.768344,803.982938 L603.358168,803.961783 C602.968329,803.957647 602.579481,803.953176 602.116715,803.947374 L599.765091,803.913772 C599.385467,803.907641 599.00678,803.901186 598.553127,803.892973 L596.356968,803.849395 L596.206674,803.84613 L594.069394,803.795684 L593.91808,803.791826 L591.819219,803.734339 L591.667012,803.72988 L589.507571,803.66243 C589.156695,803.650797 588.806591,803.638867 588.379202,803.623833 L586.35232,803.548937 L586.198511,803.542957 L584.12798,803.45839 C583.791839,803.444009 583.456377,803.429346 583.043018,803.410819 L581.102346,803.320373 L580.947979,803.31288 L578.9613,803.212517 C578.639004,803.195609 578.317292,803.178433 577.91768,803.156651 L576.05753,803.051953 L575.903838,803.043005 L574.094455,802.934177 L573.97602,802.926877 L573.680759,802.907 L570.843975,802.863746 C506.990265,801.793255 440.41919,797.125652 376.087852,790.106585 L372.230699,789.68263 C347.770387,786.974384 325.066847,784.070803 306.107614,781.32003 C283.82803,778.087512 276.468076,776.849987 270.511722,774.370192 C240.802629,762.001472 217.298493,744.892101 199.829542,723.334452 C192.826703,714.692562 186.42506,705.524092 180.677093,695.967256 L180.611759,695.859 L180.017458,695.805109 C175.440811,695.351638 170.968073,694.111358 166.799072,692.131052 L166.205589,691.843122 C144.404339,681.043253 125.304274,665.496196 109.088731,645.55191 L109.022278,645.469956 L108.798392,645.193099 L108.733274,645.112359 C100.025991,634.287657 89.1170547,616.363915 74.8781859,590.043826 C71.7158507,584.198351 70.0598577,577.65704 70.0598499,571.010993 L70.060759,528.66 L69.9473329,528.607267 C56.6127569,522.248643 47.4023257,508.743243 47.150759,493.129076 L47.15,478.245 L26.9458624,478.245776 C13.7209278,478.245776 3,467.524848 3,454.299914 C3,441.074979 13.7209278,430.354051 26.9458624,430.354051 L49.5222425,430.353974 C53.1239465,420.391968 60.5668958,412.283988 70.03742,407.792734 L70.060759,407.781 L70.0598499,366.432351 C70.0598579,359.599043 71.8103793,352.883333 75.1396067,346.924023 L75.4563416,346.367573 C91.870553,318.05986 105.335821,297.683304 116.630298,284.496052 C128.876477,270.19761 144.419179,257.42306 163.11663,246.006723 C167.733696,243.187624 172.874618,241.334352 178.228444,240.559004 L193.118759,238.402 L193.344503,238.134679 C207.65,221.202421 224.886724,206.73741 244.238632,195.135308 L245.259103,194.527316 C249.089409,192.259497 254.722642,189.669018 260.652288,187.277346 L261.642498,186.88145 L261.764198,186.833052 C266.343343,185.02067 270.689136,183.505165 274.702709,182.41244 C303.824426,174.483839 336.113301,167.425973 363.017579,164.336167 C412.246639,158.682484 522.491195,154.797997 628.063662,156.359015 L630.531022,156.296805 C647.213699,155.901762 664.208415,155.901244 681.516036,156.294185 Z M657.44835,196.001219 L654.1733,196.001219 C646.541282,196.013339 638.977636,196.108037 631.482351,196.28549 L628.274271,196.366609 L627.928078,196.360741 C590.573337,197.37226 554.929579,200.457206 520.997897,205.628388 L519.856324,205.908419 L518.621553,206.216718 L516.834756,206.67148 L515.621202,206.987145 L514.42903,207.303652 L513.704713,207.499569 L512.658953,207.78816 L511.352956,208.159819 L510.800907,208.321579 L510.26393,208.482292 L509.767956,208.634144 L509.334331,208.77019 L508.216645,209.148273 L506.183307,210.03258 L505.142468,210.496077 C456.539793,232.457928 430.056505,275.292711 423.179216,337.188163 C411.656817,440.889486 414.459962,538.528688 420.656762,598.598164 L420.844704,600.415115 L421.230486,604.096454 C424.678369,636.61063 429.47915,675.289342 454.312697,707.245703 C471.260572,729.054607 497.802168,747.356486 539.303829,758.521756 L541.685439,759.17023 L542.431364,759.37825 L543.03962,759.457223 L545.122444,759.722418 L547.952039,760.072848 L550.097456,760.330005 L551.521984,760.496274 L554.485224,760.829953 L555.961415,760.989742 L557.460747,761.147424 L559.773776,761.381411 L561.320514,761.531473 L562.896321,761.678964 L564.493812,761.822895 L566.113989,761.963085 L567.757847,762.099353 L569.426377,762.231514 L571.120567,762.359382 L572.841396,762.482768 L574.589837,762.601478 L576.36686,762.715319 L578.173426,762.824094 L580.030679,762.92874 C580.326183,762.944808 580.622843,762.960664 580.920673,762.976305 L582.825343,763.072552 L584.762993,763.162953 C585.072091,763.176764 585.382428,763.190344 585.694019,763.203688 L587.682602,763.28492 L589.706328,763.359779 C590.030085,763.371122 590.355165,763.382212 590.681582,763.393046 L592.759698,763.457951 L594.855291,763.515409 L596.989243,763.565831 L599.181982,763.609388 C599.534703,763.615724 599.888905,763.621769 600.2446,763.627519 L602.517093,763.659956 C602.880183,763.664458 603.244806,763.668656 603.610977,763.672545 L605.943012,763.692969 L608.265938,763.708512 L611.852957,763.708512 L614.30014,763.697849 L616.819879,763.679504 C618.068508,763.668226 619.333513,763.653597 620.615337,763.635509 L623.264521,763.593589 C623.692789,763.586087 624.122897,763.578204 624.554862,763.569937 L627.276848,763.513278 C627.717714,763.50337 628.160476,763.493068 628.60515,763.482368 L631.401821,763.410486 C631.855606,763.398086 632.311343,763.385278 632.769046,763.372059 L635.642281,763.284467 C636.595552,763.253894 637.557182,763.221565 638.527304,763.187447 L640.623759,763.115473 C641.336637,763.091557 642.052691,763.068078 642.771852,763.044971 L647.052365,762.912394 L651.40184,762.785488 L662.479072,762.47526 L669.268346,762.2783 L673.849735,762.136201 C734.32127,760.195903 809.119105,756.136741 859.547534,712.482392 C899.440101,677.948617 916.837717,617.40669 915.411932,532.430378 C915.413473,531.584429 915.414824,530.741364 915.415982,529.901184 L915.421244,522.395618 L915.418988,517.488057 L915.406954,510.248783 L915.393184,505.514852 L915.374803,500.849184 L915.35182,496.253743 L915.324249,491.730828 L915.274213,485.070253 L915.235177,480.725557 L915.167893,474.328343 L915.117365,470.157296 L915.062257,466.056962 L914.970908,460.031792 L914.869247,454.164874 L914.795912,450.350001 L914.677109,444.74791 L914.548034,439.304402 L914.456444,435.769674 L914.360226,432.302404 L914.259598,428.91011 L914.099879,423.944975 L913.929988,419.139155 L913.811392,416.031751 L913.688161,412.99139 L913.560479,410.022534 L913.427871,407.114502 C913.405827,406.645029 913.383599,406.178332 913.361188,405.71441 L913.221929,402.914097 L913.078837,400.196595 L912.931404,397.551278 L912.779665,394.978341 L912.623662,392.478001 L912.462443,390.03537 C912.43609,389.64731 912.40956,389.26194 912.382851,388.87926 L912.215322,386.546414 L912.043482,384.284757 C912.015663,383.928982 911.98767,383.575844 911.959501,383.225343 L911.7816,381.074747 L911.601302,379.016172 L911.415256,377.010788 C911.385713,376.701647 911.356004,376.395037 911.326126,376.09096 L911.132139,374.175019 C911.102036,373.88656 911.07177,373.600571 911.04134,373.317052 L910.841463,371.511128 C910.810955,371.243904 910.780289,370.979073 910.749463,370.716635 L910.543985,369.021729 C910.446638,368.24406 910.347786,367.489608 910.24736,366.75838 L909.948081,364.613292 C905.246931,331.44442 892.180224,253.153661 825.335308,220.101126 C815.513505,215.244579 765.902765,199.163586 687.726091,196.485184 C685.37914,196.405492 683.006312,196.338327 680.608136,196.283881 C672.819827,196.10706 665.099903,196.012811 657.44835,196.001219 Z M486.710085,197.297701 L484.593284,197.360171 C430.979316,198.929891 389.026305,201.612131 367.581358,204.074963 C337.932583,207.47996 302.556064,216.285142 285.210523,221.007593 C282.685028,221.695178 279.540522,222.816419 276.484758,224.025862 L275.614709,224.373518 C271.28265,226.120817 267.269257,227.980973 265.637949,228.946826 L264.625139,229.5511 C264.513021,229.618507 264.400968,229.686046 264.288981,229.753718 L263.302798,230.354108 L262.31984,230.961505 C262.031441,231.141042 261.743497,231.321468 261.456018,231.502783 L261.431778,231.518074 L260.760233,231.943934 L260.260096,232.263915 L259.845,232.53 L260.05227,232.397594 L259.516,232.744 L259.408,232.814 L259.162283,232.974829 L259.122,233 L258.621,233.329 L258.565063,233.366561 L258.494448,233.413114 L258.37,233.495 L257.993878,233.744546 L257.607,234.002 L257.506,234.069 L257.424029,234.124923 L257.331,234.187 L257.283,234.219 L256.304934,234.88157 C255.932787,235.135333 255.561532,235.390642 255.191186,235.647497 L254.941,235.821 L254.989,235.788 L254.818,235.907 L254.902,235.848 L254.817432,235.907455 L254.687,235.998 L254.65,236.024 L254.444241,236.168506 L254.309,236.263 L254.121,236.395 L253.471,236.856 L253.866,236.575 L253.665861,236.717806 L253.218,237.036 L253.388179,236.915355 L253.023,237.176 L252.892,237.27 L252.874377,237.28311 L252.601427,237.479657 L252.539,237.524 L252.536,237.526 L252.19,237.777 L251.225007,238.483476 C250.847116,238.762007 250.470275,239.042202 250.094506,239.324061 L250.054,239.354 L249.93273,239.445559 L249.772,239.566 L249.676,239.639 L249.214,239.989 L249.604365,239.693111 L249.212792,239.989973 L248.934,240.202 L248.655965,240.415254 L248.628,240.436 L248.608937,240.451341 L248.569,240.481 L248.468,240.559 L248.335,240.661 L248.210983,240.757783 L248.187,240.775 L248.086,240.853 L248.026,240.9 L246.949075,241.742258 C246.565384,242.044577 246.182907,242.348685 245.801666,242.65458 C245.69104,242.743343 245.580543,242.832236 245.470151,242.921279 L245.368434,243.00339 L245.1,243.22 L245.239,243.108 L245.066,243.248 L244.951,243.341 L244.938,243.352 L244.935,243.354 L244.817,243.45 L244.74,243.513 L244.382,243.806 L243.950077,244.16239 L243.636,244.422 L243.572,244.475 L243.466788,244.56337 L243.376,244.638 L242.99433,244.9584 C242.83707,245.090391 242.680037,245.222695 242.523233,245.355312 L241.641707,246.106247 L241.199,246.487 L241.183137,246.501184 L240.919,246.73 L240.977,246.679 L240.892,246.753 L240.798264,246.834954 C240.626548,246.984342 240.45512,247.134114 240.283982,247.284269 L240.726339,246.897564 L240.207,247.351 L240.201,247.356 L240.175,247.379 L240.105,247.441 L240.013,247.522 L239.964,247.565 L239.835275,247.67943 L239.574,247.91 L239.626877,247.863962 L239.433,248.035 L239.511,247.966 L238.636068,248.750142 C238.306917,249.046985 237.97889,249.345278 237.652004,249.645019 L237.372974,249.901484 L237.094509,250.158648 L237.093,250.159 L236.984,250.26 L236.763,250.466 L236.84289,250.392072 L236.758,250.47 L236.763,250.466 L236.741,250.486 L236.616,250.603 L236.591697,250.626106 L236.37,250.833 L236.156,251.034 L235.844624,251.328147 L235.711,251.454 L235.488,251.666 L235.337322,251.810064 L235.207,251.934 L235.136,252.002 L234.95389,252.177139 L234.952,252.178 L233.798825,253.297955 L232.654298,254.431393 L232.342,254.744 L232.238499,254.848951 L232.159,254.928 L232.226,254.861 L232.129,254.959 L232.02,255.069 L231.912452,255.178577 L231.875,255.216 L231.82414,255.268194 L231.823,255.269 L231.72,255.374 L231.554,255.543 L231.382,255.718 L231.366481,255.734931 L231.191,255.914 L230.995,256.116 L230.981148,256.130945 L230.838,256.278 L230.77,256.348 L230.789,256.329 L229.883282,257.274788 L228.865363,258.356473 L228.41,258.846 L228.408,258.848 L228.403,258.854 L228.391,258.867 L228.096102,259.187861 C227.972526,259.3224 227.849169,259.45718 227.726031,259.5922 L227.702,259.618 L227.698,259.623 L227.543,259.793 L227.549,259.787 L227.02729,260.363574 L227.316,260.043 L227.271829,260.092424 L226.954,260.444 L226.81964,260.594838 L226.752,260.669 L226.657867,260.77566 L226.513,260.937 L226.626,260.811 L225.86017,261.675766 C225.541902,262.03774 225.225197,262.401377 224.910073,262.766676 L224.909,262.767 L224.868,262.815 L224.862,262.822 L224.734,262.971 L224.590931,263.137834 L224.495,263.249 L224.372,263.393 L224.288,263.492 L224.287,263.492 L224.279,263.502 L224.272912,263.510094 L224.16,263.642 L223.954,263.885 L224.03,263.794 L223.932,263.91 L223.923,263.921 L223.909,263.938 L223.816,264.048 L223.586169,264.322311 L223.558,264.355 L223.527,264.392 L223.518,264.403 L223.476,264.453 L223.137744,264.858942 L223.398,264.547 L222.718724,265.36496 C222.434411,265.70982 222.151491,266.056097 221.86998,266.403791 L221.522271,266.83486 L221.175879,267.267535 L221.104,267.356 L221.03,267.45 L221.016404,267.467836 L220.945,267.557 L220.914,267.596 L220.806,267.732 L220.857405,267.668234 L220.768,267.781 L220.685,267.886 L220.661,267.916 L220.443835,268.192789 L220.307,268.367 L220.261,268.426 L220.187,268.52 L220.165,268.549 L220.088,268.647 L220.032393,268.719439 L219.93,268.851 L219.152869,269.861706 C218.569861,270.62646 217.993564,271.397698 217.424135,272.175411 L217.422,272.178 L217.313,272.326 L217.304928,272.338452 L217.245,272.419 L217.296,272.35 L217.085,272.64 L217.06,272.674 L217.051,272.686 L216.953,272.822 L216.797778,273.037335 L216.78,273.061 L216.741,273.115 L216.736,273.122 L216.561,273.365 L216.68054,273.20012 L216.354,273.655 L216.404,273.584 L216.325,273.695 L216.297,273.735 L216.288,273.747 L216.211,273.856 L216.048,274.086 L216.07,274.054 L216.047725,274.086886 L215.853391,274.361998 L215.834,274.388 L215.767,274.483 L215.822,274.406 L215.312563,275.134699 C202.206869,293.986992 193.086266,316.481586 190.074813,342.473214 C188.874372,352.834134 187.829075,363.132093 186.926615,373.333077 C186.915342,373.655017 186.886593,373.973701 186.843263,374.287729 L186.770503,375.113082 C179.185831,462.353983 182.019202,542.341049 187.546709,593.725493 L187.735072,595.471842 L188.121717,599.010133 C190.091413,616.823066 195.630094,636.56103 204.638464,655.930201 L204.671049,656.000228 L205.1791,657.083365 L205.288259,657.313984 L205.397746,657.544562 L205.658645,658.091083 L205.759244,658.300726 L205.931,658.658 L205.967,658.731 L205.954,658.706 L205.97,658.738 L205.983,658.765 L206.001,658.801 L206.023,658.848 L206.067,658.938 L206.131,659.07 L206.162,659.133 L206.249,659.313 L206.289257,659.395436 L206.328,659.475 L206.418,659.659 L206.461,659.746 L206.51,659.847 L206.579796,659.988678 L206.6,660.03 L207.228742,661.296802 C207.446825,661.732556 207.666676,662.168013 207.888293,662.603146 L208.558442,663.90755 L208.802,664.377 L208.803,664.379 L208.811,664.394 L209.454371,665.616912 C209.674545,666.032284 209.896338,666.447303 210.11975,666.861945 L210.794839,668.104719 C211.24657,668.929596 211.704725,669.752885 212.169296,670.574403 L212.252,670.72 L212.893729,671.844935 C213.380101,672.690979 213.873305,673.535034 214.373332,674.376897 L214.4,674.422 L214.48949,674.572218 L214.578,674.72 L214.60602,674.767674 L214.659,674.856 L214.707647,674.937733 L214.712,674.945 L214.708,674.937 L214.88,675.225 L214.963,675.364 L215.108,675.604 L215.158,675.687 L215.217,675.785 L215.238,675.819 L215.258,675.853 L215.294,675.912 L215.318,675.952 L215.33,675.972 L216.066227,677.176133 L216.846973,678.433966 L217.176029,678.958072 L217.459,679.406 L217.589,679.61 L217.506878,679.481504 L217.59,679.613 L217.667,679.733 L217.773,679.9 L217.921,680.132 L217.929,680.144 L217.993,680.244 L218.028633,680.299881 L218.067,680.359 L218.147,680.484 L218.18,680.535 L218.237,680.624 L218.393,680.866 L218.416374,680.902534 L218.417,680.904 L218.535,681.085 L218.586,681.164 L218.597,681.182 L218.638,681.245 L218.659,681.277 L218.687,681.32 L218.702399,681.344121 L218.722,681.374 L218.746,681.412 L218.765,681.44 L218.806,681.503 L218.812,681.513 L218.844,681.562 L218.954,681.73 L219.618403,682.741673 C219.890728,683.153447 220.164746,683.564506 220.440455,683.974825 L221.272658,685.203534 L221.295,685.237 L221.349,685.315 L221.392,685.378 L221.573847,685.643459 L221.423,685.423 L221.59819,685.678907 L221.771,685.93 L221.783,685.947 L221.787,685.953 L221.922,686.148 L221.933066,686.164892 L222.057,686.343 L222.862953,687.498531 C223.177574,687.945871 223.494246,688.392224 223.812968,688.837556 L223.864,688.909 L223.94422,689.020727 L224.035,689.147 L224.075706,689.203787 L224.218,689.401 L224.12,689.266 L224.217855,689.401199 L224.404088,689.659065 L224.48,689.764 L224.503,689.795 L224.614,689.949 L224.624935,689.963734 L224.645,689.992 L224.882,690.317 L224.957,690.419 L224.964,690.428 L225.019,690.504 L225.165,690.703 L225.178,690.721 L225.26,690.832 L225.349,690.953 L225.415214,691.044086 C225.954452,691.77604 226.499308,692.505037 227.049777,693.230923 C227.222947,693.459277 227.396902,693.687625 227.571414,693.915659 L227.648,694.016 L227.66,694.031 L227.761,694.163 L227.816,694.235 L227.831843,694.255189 L227.975,694.442 L227.982914,694.451441 L227.997,694.47 L228.125,694.636 L228.265,694.817 L228.396,694.985 L228.485422,695.100551 L228.495,695.113 L228.517,695.141 L228.556,695.191 L228.629,695.284 L228.73,695.414 L228.776,695.473 L228.81693,695.525697 L228.821,695.531 L228.896,695.627 L228.898,695.629 L228.974,695.726 L229.036,695.805 L229.078,695.859 L229.093,695.878 L229.163,695.967 L229.19,696.002 L229.195,696.008 L229.212,696.03 L229.238,696.063 L229.523,696.423 L229.563,696.473 L229.662,696.598 L229.699,696.644 L229.673,696.612 L229.698246,696.644246 L229.897,696.893 L230.159448,697.222912 L229.547341,696.453915 C229.997034,697.021824 230.450248,697.587634 230.906981,698.151268 C243.359304,713.518121 260.979186,727.073412 285.885673,737.442673 C288.648842,738.593057 376.722357,752.656162 486.694771,759.457726 L485.897182,759.024762 C466.451559,748.446462 450.740286,735.24258 438.520529,719.517925 C425.290556,702.4933 416.339057,683.166324 410.42938,661.041423 C406.103308,644.845292 403.911117,630.432765 401.339407,606.180916 L400.950847,602.472897 L400.762341,600.650483 C393.048652,525.876844 392.972092,427.94434 403.301541,334.979527 C410.519958,270.01394 438.198256,223.325022 486.710085,197.297701 Z M715.109425,236.575679 C834.999708,255.567575 914.40551,379.951227 893.186967,513.941989 C871.968367,647.933112 758.017978,741.687752 638.127261,722.695788 C518.236978,703.703892 438.831176,579.32024 460.049719,445.329477 C481.268319,311.338355 595.218708,217.583714 715.109425,236.575679 Z M666.914954,254.988318 L665.178389,255.172803 C706.137244,274.840651 740.090285,307.706196 762.466584,349.156448 L833.171775,346.7945 C837.318947,346.655873 841.120861,349.092819 842.726683,352.91899 C849.477641,369.004412 855.23638,384.0226 860.002698,397.978598 C864.933548,412.416352 868.168969,427.021357 869.70223,441.780919 C870.331413,447.837604 865.447174,453.045853 859.362605,452.806453 L790.685785,450.104419 C791.318698,461.832498 791.113116,473.657885 790.057117,485.504375 L859.338417,494.331155 C864.803113,495.027401 868.675504,500.012151 867.998828,505.479305 C865.724427,523.855165 862.777861,539.198951 859.123657,551.559953 C855.431115,564.050644 849.156292,577.888727 840.321352,593.136003 C838.732828,596.628749 835.196918,599.040611 831.114031,599.00003 C829.57236,598.98442 828.115675,598.620784 826.817874,597.984504 L758.045208,587.477283 C725.914058,643.157127 673.52187,682.632904 614.140113,696.423964 C622.888918,699.27763 631.940488,701.466352 641.256455,702.942101 C749.671086,720.116131 853.863851,634.389744 873.43312,510.813805 C893.002447,387.237505 820.395296,273.503465 711.980231,256.329366 C696.802183,253.925002 681.706883,253.537486 666.914954,254.988318 Z M629.592378,262.689409 L626.670247,263.642326 C553.47056,288.206817 494.089133,358.247226 479.803566,448.457662 C479.442766,450.736037 479.1133,453.011067 478.814813,455.282208 C485.105975,446.539232 495.170207,441.565107 505.546298,443.208791 C520.913004,445.64304 531.144645,461.670192 528.399308,479.006437 C525.65397,496.342682 510.971258,508.423135 495.604552,505.988886 C487.446124,504.696504 480.735126,499.572669 476.645099,492.455653 C477.852201,573.76533 518.297149,645.762691 580.424117,681.440326 C580.854513,681.344729 581.293539,681.28079 581.741778,681.245894 C646.211553,676.226834 705.207651,637.78893 739.722785,579.195791 C739.383699,578.190732 739.201739,577.118563 739.201739,576.009059 L739.201739,493.403181 C739.201739,487.880334 743.678891,483.403181 749.201739,483.403181 L770.164859,483.403463 C771.166384,471.985698 771.309036,460.596295 770.606287,449.314547 L748.808589,448.456665 C743.442849,448.245548 739.201739,443.834287 739.201739,438.464396 L739.201739,359.606928 C739.201739,357.077696 740.142325,354.762125 741.697249,352.99755 C716.527637,309.5912 677.237643,277.389022 630.596748,263.057003 C630.251869,262.951027 629.916868,262.828097 629.592378,262.689409 Z M110.059,566.343 L110.05985,571.010946 C123.201982,595.303753 133.149089,611.647176 139.90117,620.041216 L140.125056,620.318073 C152.428316,635.450452 166.55642,647.100641 182.509366,655.268638 C175.08633,637.306091 170.194281,618.855682 168.240068,601.182695 L167.850406,597.616621 L167.661431,595.864584 C166.754937,587.437699 165.953516,578.705678 165.261622,569.711903 L110.059,566.343 Z M772.303739,503.403181 L759.201516,503.403181 L759.201516,566.644966 C759.630463,566.936697 760.030629,567.257552 760.400745,567.60341 L821.334,576.913 L822.008,509.736 L772.303739,503.403181 Z M110.059,508.449 L110.059,546.306 L163.922042,549.593318 C163.212692,537.061926 162.705797,524.117574 162.412072,510.864602 L110.059,508.449 Z M841.984,512.282 L841.712294,539.400313 C843.58361,531.956633 845.247904,523.383573 846.697384,513.69196 L846.814739,512.897181 L841.984,512.282 Z M690.242019,440.039806 C704.291579,442.265405 713.646222,456.918802 711.1362,472.769083 C708.626177,488.619363 695.201983,499.66435 681.152423,497.43875 C667.102863,495.21315 657.74822,480.559754 660.258243,464.709473 C662.768265,448.859192 676.192459,437.814206 690.242019,440.039806 Z M87.15,450.789 L87.15,487.372 L155.634159,490.530972 L155.634159,453.032972 L87.15,450.789 Z M166.05916,382.908585 L110.059,382.908 L110.059,431.529 L163.097558,433.266677 C163.749388,416.580106 164.730601,399.735763 166.05916,382.908585 Z M842.551842,408.947315 L842.318,432.119 L848.223739,432.351918 L848.084754,431.544961 C846.747252,423.974975 844.903373,416.443228 842.551842,408.947315 Z M822.97,367.145 L759.201739,369.277918 L759.201739,428.849918 L778.66391,429.614155 C778.717884,429.607794 778.772007,429.601854 778.826276,429.596338 C779.849614,429.492319 780.852571,429.546474 781.810849,429.738991 L822.325,431.332 L822.97,367.145 Z M189.217856,279.384616 L183.961489,280.146024 C168.673321,289.480712 156.356381,299.604007 147.01067,310.515911 C138.08686,320.935208 126.454033,338.399531 112.112188,362.908879 L167.804728,362.908879 C168.532463,355.306275 169.332903,347.721819 170.207717,340.171364 C172.762423,318.121886 179.301408,297.719675 189.217856,279.384616 Z" id="Combined-Shape" fill-rule="nonzero"></path>
        </g>
    </g>
</svg>